<?xml version="1.0" encoding="UTF-8"?>
<!DOCTYPE svg PUBLIC "-//W3C//DTD SVG 1.1//EN" "http://www.w3.org/Graphics/SVG/1.1/DTD/svg11.dtd">
<!-- Creator: CorelDRAW X8 -->
<svg xmlns="http://www.w3.org/2000/svg" xml:space="preserve" width="95.25mm" height="169.333mm" version="1.1" style="shape-rendering:geometricPrecision; text-rendering:geometricPrecision; image-rendering:optimizeQuality; fill-rule:evenodd; clip-rule:evenodd"
viewBox="0 0 9525 16933"
 xmlns:xlink="http://www.w3.org/1999/xlink">
 <defs>
  <style type="text/css">
   <![CDATA[
    .str0 {stroke:#FEFEFE;stroke-width:7.62}
    .fil0 {fill:#FEFEFE;fill-rule:nonzero}
   ]]>
  </style>
 </defs>
 <g id="Layer_x0020_1">
  <metadata id="CorelCorpID_0Corel-Layer"/>
  <path class="fil0 str0" d="M5297 6174c4,-3 7,-8 7,-14 0,-5 -3,-11 -7,-14l-189 -122 88 -136 165 107c5,3 12,3 17,0 5,-3 9,-8 9,-15l0 -196 162 0 0 196c0,7 3,12 9,15 5,3 12,3 17,0l165 -107 88 136 -189 122c-5,3 -7,9 -7,14 0,6 2,11 7,14l189 122 -88 137 -165 -107c-5,-3 -12,-4 -17,-1 -6,3 -9,9 -9,15l0 197 -162 0 0 -197c0,-6 -4,-12 -9,-15 -5,-3 -12,-2 -17,1l-165 107 -88 -137 189 -122zm-229 114c-1,4 0,9 2,13l106 164c5,8 16,10 24,5l153 -99 0 183c0,9 8,16 17,16l196 0c9,0 17,-7 17,-16l0 -183 153 99c8,5 18,3 23,-5l107 -164c2,-4 3,-9 2,-13 -1,-4 -4,-8 -7,-11l-182 -117 182 -117c3,-2 6,-6 7,-10 1,-5 0,-9 -2,-13l-107 -165c-5,-7 -15,-10 -23,-5l-153 100 0 -183c0,-9 -8,-17 -17,-17l-196 0c-9,0 -17,8 -17,17l0 183 -153 -100c-8,-5 -19,-2 -24,5l-106 165c-2,4 -3,8 -2,13 1,4 3,8 7,10l182 117 -182 117c-4,3 -6,7 -7,11z"/>
 </g>
</svg>
